<svg width="17" height="15" viewBox="0 0 17 15" fill="none" xmlns="http://www.w3.org/2000/svg">
<path d="M7.92621 13.1686L7.92475 13.1673C5.71528 11.2405 3.96445 9.71102 2.75393 8.28775C1.55355 6.87638 1 5.69941 1 4.49591C1 2.56694 2.57211 1 4.675 1C5.86552 1 7.01318 1.53777 7.75133 2.37139L8.5 3.21688L9.24867 2.37139C9.98683 1.53777 11.1345 1 12.325 1C14.4279 1 16 2.56694 16 4.49591C16 5.69943 15.4465 6.87644 14.2458 8.28903C13.0353 9.71332 11.2847 11.2446 9.07555 13.1752C9.07518 13.1755 9.07482 13.1759 9.07445 13.1762L8.5025 13.6731L7.92621 13.1686Z" fill="white" stroke="white" stroke-width="2"/>
</svg>
