<svg width="15" height="14" viewBox="0 0 15 14" fill="none" xmlns="http://www.w3.org/2000/svg">
<path d="M3.01667 6.05889C4.21667 8.26 6.15 10.0567 8.50833 11.1844L10.3417 9.47333C10.5667 9.26333 10.9 9.19333 11.1917 9.28667C12.125 9.57444 13.1333 9.73 14.1667 9.73C14.625 9.73 15 10.08 15 10.5078V13.2222C15 13.65 14.625 14 14.1667 14C6.34167 14 0 8.08111 0 0.777778C0 0.35 0.375 0 0.833333 0H3.75C4.20833 0 4.58333 0.35 4.58333 0.777778C4.58333 1.75 4.75 2.68333 5.05833 3.55444C5.15 3.82667 5.08333 4.13 4.85 4.34778L3.01667 6.05889Z" fill="white"/>
</svg>
