<svg width="15" height="15" viewBox="0 0 15 15" fill="none" xmlns="http://www.w3.org/2000/svg">
<path d="M7.26582 0C3.25509 0 0 3.25509 0 7.26582C0 11.2766 3.25509 14.5316 7.26582 14.5316C11.2766 14.5316 14.5316 11.2766 14.5316 7.26582C14.5316 3.25509 11.2766 0 7.26582 0ZM7.26582 2.90633C8.66813 2.90633 9.80886 4.04706 9.80886 5.44937C9.80886 6.85167 8.66813 7.99241 7.26582 7.99241C5.86352 7.99241 4.72278 6.85167 4.72278 5.44937C4.72278 4.04706 5.86352 2.90633 7.26582 2.90633ZM7.26582 13.0785C5.79086 13.0785 4.04706 12.4827 2.80461 10.9859C4.03253 10.0268 5.58015 9.44557 7.26582 9.44557C8.95149 9.44557 10.4991 10.0268 11.727 10.9859C10.4846 12.4827 8.74078 13.0785 7.26582 13.0785Z" fill="white"/>
</svg>
